<svg xmlns="http://www.w3.org/2000/svg" width="64" height="61" viewBox="0 0 64 61"><g><g><path fill="#ffd040" d="M2.002 37.287a3.214 3.214 0 0 0-.8 4.475l12.25 17.579a3.214 3.214 0 0 0 5.139.18l13.446-16.682a3.214 3.214 0 1 0-5.005-4.034L16.276 52.15l-9.8-14.063a3.214 3.214 0 0 0-4.474-.8zM60.972.113A45.932 45.932 0 0 0 27.945 12.46 45.91 45.91 0 0 0 17.57 26.75a45.762 45.762 0 0 0-4.228 17.444L16.4 48.58l3.366-4.176a39.37 39.37 0 0 1 12.565-27.243A39.38 39.38 0 0 1 60.747 6.537 3.214 3.214 0 0 0 60.97.113z"/></g></g></svg>