<svg xmlns="http://www.w3.org/2000/svg" width="51" height="71" viewBox="0 0 51 71"><g><g><path fill="#ffd040" d="M26.926 68.218a3.196 3.196 0 0 0-1.848-4.125L9.152 58.021 19.44 44.432a3.196 3.196 0 0 0-5.095-3.858L1.485 57.56a3.196 3.196 0 0 0 1.409 4.915l19.907 7.59a3.196 3.196 0 0 0 4.125-1.847zM44.654.188a3.196 3.196 0 0 0-2.191 3.953 39.158 39.158 0 0 1-3.416 29.973A39.149 39.149 0 0 1 15.785 52.79l-3.22 4.252 4.97 1.895a45.504 45.504 0 0 0 15.814-8.276 45.651 45.651 0 0 0 11.29-13.448A45.673 45.673 0 0 0 48.606 2.38 3.196 3.196 0 0 0 44.654.189z"/></g></g></svg>