<svg xmlns="http://www.w3.org/2000/svg" width="86" height="31" viewBox="0 0 86 31"><g><g><path fill="#ffd040" d="M75.685 31.023a3.569 3.569 0 0 0 4.286-2.665l5.405-23.17a3.569 3.569 0 0 0-3.67-4.375L57.947 2.112a3.569 3.569 0 0 0 .39 7.127L77.344 8.2 73.02 26.738a3.569 3.569 0 0 0 2.665 4.286zM1.189 9.982A51.006 51.006 0 0 0 35.918 28.06a50.982 50.982 0 0 0 19.501-2.054 50.817 50.817 0 0 0 17.538-9.472l1.349-5.785-5.948.325A43.72 43.72 0 0 1 36.54 20.95 43.73 43.73 0 0 1 6.657 5.393 3.569 3.569 0 0 0 1.19 9.982z"/></g></g></svg>