<svg xmlns="http://www.w3.org/2000/svg" width="86" height="31" viewBox="0 0 86 31"><g><g><path fill="#ffd040" d="M76.349-.028a3.569 3.569 0 0 0-2.813 4.191L77.21 22.84l-18.958-1.702a3.569 3.569 0 0 0-.638 7.109l23.697 2.127a3.569 3.569 0 0 0 3.821-4.243L80.54 2.785a3.569 3.569 0 0 0-4.191-2.813zM1.165 18.402a3.569 3.569 0 1 0 5.304 4.775A43.73 43.73 0 0 1 36.877 8.675 43.72 43.72 0 0 1 68.33 19.654l5.932.532-1.146-5.828A50.817 50.817 0 0 0 55.92 4.279a50.982 50.982 0 0 0-19.418-2.733A51.006 51.006 0 0 0 1.164 18.4z"/></g></g></svg>