<svg xmlns="http://www.w3.org/2000/svg" width="220" height="147" viewBox="0 0 220 147"><g><g><g opacity=".4"><path fill="#a8c4e5" d="M79.698 146.22h80.41l59.353-35.341-81.289-41.015z"/></g><g><path fill="#bd9575" d="M79.697 84.272l63.163-36.468-63.162-36.466-63.163 36.467z"/></g><g><path fill="#b38a68" d="M79.697 84.272l63.163-36.468-63.162-36.466z"/></g><g><path fill="#a17b51" d="M121.285 79.836l16.887-9.972V58.45l-16.887 9.972z"/></g><g><path fill="#d6a985" d="M142.86 47.804l14.268-10.163L93.703-.003l-14.005 11.34z"/></g><g><path fill="#d6a985" d="M79.698 11.338L62.638-.003-.049 36.317l16.584 11.488z"/></g><g><path fill="#2a5072" d="M119.807 55.303V88.36l-33.521 19.353V54.716z"/></g><g><path fill="#2a5072" d="M70.83 45.89v9.097l15.456-.27v52.995L70.83 98.789v.097L37.31 79.532V46.477z"/></g><g><path fill="#f58634" d="M37.214 46.508l33.617-19.409 49.07 28.234-33.615 19.409z"/></g><g><path fill="#bd9575" d="M142.682 47.749v62.107l-62.984 36.365V84.272z"/></g><g><path fill="#d6a985" d="M79.698 84.272v61.949l-62.985-36.365V47.75z"/></g><g><path fill="#e8be99" d="M79.697 84.272L64.287 94.95-.048 58.47l16.584-10.665z"/></g><g><path fill="#d6a985" d="M142.86 47.804l17.247 12.075-66.125 38.895-14.285-14.502z"/></g><g><g><path fill="none" stroke="#122c73" stroke-linecap="round" stroke-linejoin="round" stroke-miterlimit="20" stroke-width=".98" d="M40.367 116.637v0l10.951 6.4v0-13.748 0l-10.951-6.399v0z"/></g><g><path fill="none" stroke="#122c73" stroke-linecap="round" stroke-linejoin="round" stroke-miterlimit="20" stroke-width=".98" d="M29.415 110.238v0l10.952 6.4v0-13.748 0l-10.952-6.4v0z"/></g><g><path fill="none" stroke="#122c73" stroke-linecap="round" stroke-linejoin="round" stroke-miterlimit="20" stroke-width=".98" d="M18.464 103.838v0l10.951 6.4v0V96.49v0l-10.95-6.4v0z"/></g><g><path fill="none" stroke="#122c73" stroke-linecap="round" stroke-linejoin="round" stroke-miterlimit="20" stroke-width=".98" d="M23.794 97.679v6.965"/></g><g><path fill="none" stroke="#122c73" stroke-linecap="round" stroke-linejoin="round" stroke-miterlimit="20" stroke-width=".98" d="M25.18 100.3v0l-1.386-3.286v0l-1.315 1.707v0"/></g><g><path fill="none" stroke="#122c73" stroke-linecap="round" stroke-linejoin="round" stroke-miterlimit="20" stroke-width=".98" d="M38.03 108.811v0s-.072-3.8-2.555-5.25c-2.482-1.451-2.701 2.178-2.701 2.178v0z"/></g><g><path fill="none" stroke="#122c73" stroke-linecap="round" stroke-linejoin="round" stroke-miterlimit="20" stroke-width=".98" d="M43.214 108.083v0s.073 3.8 2.556 5.25c2.482 1.45 2.701-2.179 2.701-2.179v0z"/></g><g><path fill="none" stroke="#122c73" stroke-linecap="round" stroke-linejoin="round" stroke-miterlimit="20" stroke-width=".98" d="M35.548 108.415v2.83c0 .511-.33.733-.739.495v0c-.408-.239-.74-.847-.74-1.36v-.401 0"/></g><g><path fill="none" stroke="#122c73" stroke-linecap="round" stroke-linejoin="round" stroke-miterlimit="20" stroke-width=".98" d="M45.77 113.333v4.152"/></g><g><path fill="none" stroke="#122c73" stroke-linecap="round" stroke-linejoin="round" stroke-miterlimit="20" stroke-width=".98" d="M47.522 118.745l-3.505-2.048"/></g></g><g><path fill="#fff" d="M46.372 55.117v3.334l-5.363-2.984V52.03z"/></g></g></g></svg>