<svg xmlns="http://www.w3.org/2000/svg" width="20" height="18" viewBox="0 0 20 18"><g><g><g><g><path fill="#bee75e" d="M10 17.317a.587.587 0 0 1-.294-.078c-1.437-.83-3.821-2.654-5.906-4.856C2.066 10.552 0 7.869 0 5.487 0 2.384 2.432.55 4.843.109 6.02-.107 7.214 0 8.203.409c.745.308 1.353.77 1.797 1.362.444-.591 1.052-1.054 1.796-1.362.99-.409 2.183-.516 3.361-.3C17.567.549 20 2.384 20 5.487c0 1.031-.432 2.237-1.285 3.583-.688 1.088-1.646 2.268-2.848 3.507-2.192 2.262-4.579 4.087-5.573 4.662a.587.587 0 0 1-.294.078z"/></g></g><g><path fill="#00cb75" d="M15.157.109c-1.178-.216-2.371-.109-3.36.3-.745.308-1.353.77-1.797 1.362l-.007-.01v15.556H10a.587.587 0 0 0 .294-.079c.994-.574 3.38-2.4 5.573-4.66 1.202-1.24 2.16-2.42 2.849-3.508C19.568 7.724 20 6.518 20 5.487 20 2.384 17.568.55 15.157.109z"/></g><g><g><path fill="#fff36c" d="M10 13.188a.587.587 0 0 1-.32-.095L3.674 9.177a.587.587 0 0 1 0-.984L9.68 4.278a.587.587 0 0 1 .642 0l6.004 3.915a.587.587 0 0 1 0 .984l-6.004 3.916a.586.586 0 0 1-.321.095z"/></g></g><g><path fill="#ffde46" d="M16.325 8.193L10.32 4.278a.587.587 0 0 0-.329-.095v9.005H10a.587.587 0 0 0 .32-.095l6.004-3.916a.588.588 0 0 0 0-.984z"/></g><g><g><path fill="#00429d" d="M10 11.917a3.236 3.236 0 0 1-3.199-3.695c.035-.245 1.158-.502 1.245-.726.085-.219-.866-.405-.738-.598a3.232 3.232 0 0 1 5.647 3.096c-.081.183-.383-.329-.496-.165-.157.228-.14 1.122-.349 1.302a3.219 3.219 0 0 1-2.11.786z"/></g></g><g><path fill="#00347b" d="M10 5.453h-.008v6.464H10c.806 0 1.544-.296 2.11-.786.21-.18.192-1.074.349-1.302.113-.164.415.348.496.165A3.236 3.236 0 0 0 10 5.454z"/></g><g><path fill="#fff4f4" d="M12.954 9.993a5.191 5.191 0 0 0-5.63-3.118c-.269.396-.451.854-.522 1.347.439-.159.898-.24 1.366-.24a3.99 3.99 0 0 1 3.922 3.165 3.25 3.25 0 0 0 .864-1.154z"/></g><g><path fill="#f6efea" d="M11.547 8.057a5.188 5.188 0 0 0-1.555-.919v1.276a3.988 3.988 0 0 1 2.098 2.733c.369-.313.666-.707.864-1.154a5.191 5.191 0 0 0-1.407-1.936z"/></g></g></g></svg>