<svg xmlns="http://www.w3.org/2000/svg" width="380" height="95" viewBox="0 0 380 95"><g><g><g><g><path fill="#2a5072" d="M18.98 40.277L33.43 29.4l-.124-7.575-24.002 18.37 28.59 21.272.063 21.272L.031 54.74 0 47.41 33.645 73.07l.186-7.574L.09 40.524l37.713-28.685.28 21.452-14.356 10.475z"/></g><g><path fill="#f58634" d="M70.505 37.935L51.229 23.426l.167-10.103 32.018 24.504-38.139 28.374-.086 28.374 50.59-37.345.041-9.782-44.877 34.235-.248-10.103 45-33.31L45.4 0l-.375 28.614 19.149 13.973z"/></g></g><g><g><path fill="#2a5072" d="M126.58 30.75c.237-.91.277-1.227.277-1.743 0-1.345-.871-1.741-3.88-1.741-3.01 0-4.08.276-4.792 1.148-.554.713-.95 1.98-.95 3.088 0 .872.356 1.267 1.227 1.545.515.118.515.118 4.752.396 4.158.237 5.544.554 6.731 1.426.951.712 1.426 1.741 1.426 3.128 0 .99-.395 3.167-.872 4.87-.91 3.089-2.137 4.593-4.513 5.583-1.703.674-3.644.912-7.563.912-5.148 0-7.049-.317-8.553-1.387-.832-.594-1.386-1.9-1.386-3.207 0-1.109.119-1.98.554-4.078h5.821c-.237 1.028-.277 1.385-.277 1.979 0 .594.277 1.187.673 1.426.634.396 1.07.435 4.395.435 2.218 0 2.653-.04 3.406-.396.831-.356 1.227-.91 1.623-2.06.198-.671.357-1.504.357-1.979 0-.752-.317-1.188-.99-1.465-.515-.16-.515-.16-4.634-.435-4.276-.277-5.425-.476-6.652-1.149-1.227-.712-1.86-1.9-1.86-3.524 0-3.049 1.226-6.89 2.731-8.474 1.783-1.86 4.356-2.495 10.336-2.495 4.474 0 6.296.317 7.682 1.386.791.594 1.306 1.902 1.306 3.207 0 1.109-.119 1.9-.515 3.604z"/></g><g><path fill="#2a5072" d="M164.472 49.164h-6.019l2.376-11.088c.435-2.099.673-3.049 1.86-7.603l.675-2.535h-.198l-1.268 2.456c-2.257 4.276-2.851 5.385-3.96 7.286l-6.652 11.484h-5.346l-1.86-11.445c-.318-2.019-.436-2.89-.911-7.285l-.238-2.416h-.198l-.396 2.494c-.713 4.554-.91 5.781-1.308 7.564l-2.335 11.088h-6.02l5.624-26.412h9.622l1.466 9.86c.237 1.623.316 2.415.673 6.137l.158 2.059h.237l1.03-2.06c1.782-3.603 2.257-4.513 3.168-6.097l5.583-9.9h9.86z"/></g><g><path fill="#2a5072" d="M184.624 39.897h-7.762l6.534-12.552zm.356 4.475l.475 4.792h6.257l-2.89-26.412h-9.109l-13.978 26.412h6.336l2.495-4.792z"/></g><g><path fill="#2a5072" d="M202.638 36.096l1.742-8.118h6.295c2.296 0 2.97.436 2.97 1.901 0 .752-.554 3.405-.91 4.158-.634 1.504-1.664 2.06-3.762 2.06zm-8.871 13.068h6.098l1.703-7.881h6.138c2.019 0 2.851.633 2.851 2.178 0 .476-.04.911-.199 1.584l-.87 4.119h6.177l1.108-5.268c.198-.831.239-1.188.239-1.741 0-2.139-1.228-3.287-3.762-3.446l.04-.198c2.573-.554 3.642-1.108 4.592-2.415 1.148-1.624 2.336-5.9 2.336-8.514 0-1.782-.752-3.168-2.178-3.96-1.108-.593-2.771-.87-5.504-.87H199.39z"/></g><g><path fill="#2a5072" d="M230.195 49.164h-6.099l4.475-21.146h-7.127l1.108-5.266h20.75l-1.149 5.266h-7.444z"/></g></g><g><g><path fill="#f58634" d="M250.727 33.561h11.761l-.911 4.317h-11.76l-1.347 6.257h12.67l-1.068 5.029h-18.77l5.624-26.412h18.571l-1.069 5.029h-12.474z"/></g><g><path fill="#f58634" d="M289.213 49.164h-10.295l-3.128-12.79c-.357-1.505-.515-2.417-1.188-6.297l-.396-2.1h-.238c-.634 3.644-1.148 6.455-1.544 8.396l-2.693 12.79h-5.98l5.624-26.411h10.216l2.89 12.236c.713 2.97.713 3.009 1.822 8.79h.238l.356-2.06c.515-2.969.554-3.365 1.148-6.137l2.733-12.83h6.059z"/></g><g><path fill="#f58634" d="M322.392 22.752L308.65 49.164h-9.344l-2.337-26.412h6.217l1.228 12.513c.277 2.653.317 3.682.594 8.711h.159c2.494-5.187 2.73-5.623 4.315-8.711l6.574-12.513z"/></g><g><path fill="#f58634" d="M324.172 49.164h-6.099l5.623-26.412h6.098z"/></g><g><path fill="#f58634" d="M338.782 29.444c.99-1.347 2.06-1.663 5.464-1.663 2.416 0 3.208.078 3.921.434.792.358 1.148 1.07 1.148 2.337 0 1.109-1.108 6.732-1.743 8.989-1.108 3.841-2.177 4.593-6.374 4.593-4.554 0-5.346-.395-5.346-2.731 0-.952.237-2.377 1.03-5.98.91-4.158 1.187-4.99 1.9-5.98zm7.128-6.891c-4.277 0-6.336.278-8.237 1.11-2.772 1.266-4.316 2.93-5.464 6.018-1.148 3.05-2.772 10.89-2.772 13.266 0 2.534.95 4.276 2.81 5.305 1.585.832 3.288 1.11 7.247 1.11 4.04 0 6.297-.317 8.198-1.15 2.613-1.148 4.197-2.969 5.385-6.097.99-2.653 2.653-10.85 2.653-13.068 0-2.77-1.03-4.553-3.208-5.583-1.386-.673-3.089-.911-6.612-.911z"/></g><g><path fill="#f58634" d="M373.625 30.75c.237-.91.277-1.227.277-1.743 0-1.345-.871-1.741-3.881-1.741s-4.078.276-4.791 1.148c-.555.713-.951 1.98-.951 3.088 0 .872.356 1.267 1.228 1.545.515.118.515.118 4.752.396 4.158.237 5.543.554 6.731 1.426.95.712 1.425 1.741 1.425 3.128 0 .99-.395 3.167-.87 4.87-.911 3.089-2.139 4.593-4.514 5.583-1.703.674-3.644.912-7.563.912-5.148 0-7.049-.317-8.553-1.387-.832-.594-1.387-1.9-1.387-3.207 0-1.109.12-1.98.555-4.078h5.821c-.238 1.028-.278 1.385-.278 1.979 0 .594.278 1.187.674 1.426.634.396 1.069.435 4.395.435 2.217 0 2.653-.04 3.405-.396.832-.356 1.228-.91 1.624-2.06.197-.671.356-1.504.356-1.979 0-.752-.316-1.188-.99-1.465-.514-.16-.514-.16-4.633-.435-4.276-.277-5.425-.476-6.652-1.149-1.228-.712-1.86-1.9-1.86-3.524 0-3.049 1.226-6.89 2.73-8.474 1.783-1.86 4.356-2.495 10.336-2.495 4.474 0 6.296.317 7.682 1.386.792.594 1.307 1.902 1.307 3.207 0 1.109-.12 1.9-.515 3.604z"/></g></g><g><g><path fill="#2a5072" d="M115.746 65.995h-3.205l2.698-5.184zm.148 1.847l.195 1.979h2.584l-1.194-10.906h-3.76l-5.772 10.906h2.616l1.03-1.979z"/></g><g><path fill="#2a5072" d="M126.131 69.82h-2.518l2.322-10.905h2.519z"/></g><g><path fill="#2a5072" d="M138.494 69.82h-4.251l-1.292-5.28c-.147-.623-.213-.998-.49-2.6l-.164-.867h-.099a132.955 132.955 0 0 1-.637 3.467l-1.112 5.28h-2.47l2.322-10.905h4.219l1.194 5.052c.294 1.227.294 1.242.752 3.63h.098l.147-.85c.213-1.226.23-1.39.475-2.535l1.128-5.297h2.501z"/></g><g><path fill="#2a5072" d="M144.595 69.82h-2.519l1.848-8.731h-2.944l.458-2.174h8.569l-.474 2.174h-3.075z"/></g><g><path fill="#2a5072" d="M152.2 63.378h4.855l-.376 1.783h-4.856l-.556 2.583h5.232l-.441 2.077h-7.751l2.322-10.906h7.67l-.442 2.076h-5.15z"/></g><g><path fill="#2a5072" d="M160.572 67.646h4.824l-.475 2.175h-7.341l2.322-10.906h2.518z"/></g><g><path fill="#2a5072" d="M168.471 69.82h-2.518l2.322-10.905h2.518z"/></g><g><path fill="#2a5072" d="M180.964 63.836c-.261 1.505-.605 3.01-.8 3.614-.377 1.129-1.227 1.93-2.388 2.24-.54.147-1.521.213-3.025.213-2.044 0-2.764-.164-3.434-.769-.426-.392-.687-1.112-.687-1.897 0-.931.801-4.643 1.226-5.641.524-1.242 1.26-1.979 2.404-2.42.72-.261 1.471-.343 3.303-.343 1.488 0 2.142.05 2.65.229.882.31 1.258.867 1.258 1.847 0 .376-.049.72-.164 1.341h-2.534c.016-.212.033-.31.033-.457 0-.688-.36-.851-1.93-.851-2.076 0-2.501.327-2.943 2.322-.458 1.995-.638 2.992-.638 3.434 0 .834.475 1.095 2.028 1.095 2.027 0 2.452-.326 2.78-2.174h-2.387l.391-1.783z"/></g><g><path fill="#2a5072" d="M187.85 55.661l-3.206 1.7.213.867 2.648-.965 2.29.965.588-.867zm-2.306 5.33h5.151l.44-2.076h-7.667l-2.323 10.906h7.751l.44-2.077h-5.231l.556-2.583h4.856l.376-1.782h-4.856z"/></g><g><path fill="#2a5072" d="M200.932 69.82h-4.251l-1.292-5.28c-.148-.623-.213-.998-.491-2.6l-.164-.867h-.098A132.749 132.749 0 0 1 194 64.54l-1.112 5.28h-2.47l2.322-10.905h4.22l1.193 5.052c.294 1.227.294 1.242.753 3.63h.097l.147-.85c.213-1.226.23-1.39.475-2.535l1.128-5.297h2.501z"/></g><g><path fill="#2a5072" d="M212.608 65.815c-.049.164-.065.294-.082.343-.424 1.962-.801 2.6-1.848 3.189-.866.474-1.471.556-3.825.556-1.717 0-2.34-.115-2.911-.54-.556-.409-.883-1.144-.883-2.028 0-.555.393-2.878.753-4.349.457-1.995 1.029-2.877 2.223-3.549.883-.473 1.684-.604 3.891-.604 1.75 0 2.24.082 2.846.49.425.294.67.884.67 1.57 0 .409-.049.785-.245 1.799h-2.501c.114-.524.13-.687.13-.883 0-.654-.36-.818-1.767-.818-1.552 0-2.092.262-2.403 1.177-.326.933-.932 3.875-.932 4.53 0 .802.442 1.046 1.88 1.046 1.865 0 2.192-.244 2.502-1.929z"/></g><g><path fill="#2a5072" d="M215.52 69.82h-2.518l2.322-10.905h2.518z"/></g><g><path fill="#2a5072" d="M223.843 65.995h-3.203l2.696-5.184zm.147 1.847l.197 1.979h2.584l-1.194-10.906h-3.76l-5.773 10.906h2.617l1.03-1.979z"/></g><g><path fill="#2a5072" d="M234.687 67.662l1.406-6.557h2.714c1.112 0 1.554.328 1.554 1.129 0 .703-.491 3.09-.835 4.039-.343.964-1.013 1.39-2.19 1.39zm-2.977 2.159h5.495c2.223 0 3.515-.621 4.366-2.109.327-.572.522-1.177.866-2.65.605-2.697.605-2.714.605-3.482 0-1.243-.655-2.191-1.734-2.469a8.014 8.014 0 0 0-1.732-.196h-5.544z"/></g><g><path fill="#2a5072" d="M247.082 61.678c.41-.556.851-.687 2.257-.687.997 0 1.324.033 1.619.18.327.147.474.442.474.965 0 .458-.458 2.78-.72 3.712-.457 1.585-.9 1.896-2.632 1.896-1.88 0-2.207-.163-2.207-1.128 0-.393.098-.98.425-2.469.376-1.717.49-2.06.784-2.47zm5.675-2.469c-.573-.278-1.276-.376-2.731-.376-1.767 0-2.616.115-3.401.457-1.145.524-1.783 1.211-2.257 2.486-.474 1.26-1.144 4.497-1.144 5.477 0 1.047.392 1.767 1.16 2.192.655.343 1.358.458 2.993.458 1.668 0 2.6-.131 3.385-.474 1.079-.475 1.732-1.227 2.224-2.519.408-1.095 1.094-4.48 1.094-5.396 0-1.145-.424-1.88-1.323-2.305z"/></g><g><path fill="#2a5072" d="M261.883 63.526h4.644l-.443 2.076h-4.643l-.9 4.219h-2.518l2.322-10.906h7.473l-.442 2.076h-4.954z"/></g><g><path fill="#2a5072" d="M270.402 64.424l.72-3.35h2.6c.948 0 1.226.18 1.226.784 0 .31-.228 1.406-.376 1.717-.261.621-.686.85-1.553.85zm-3.662 5.397h2.518l.703-3.253h2.535c.834 0 1.177.26 1.177.899 0 .195-.016.375-.082.653l-.36 1.7h2.552l.457-2.174c.082-.343.098-.49.098-.719 0-.884-.506-1.358-1.553-1.423l.015-.081c1.065-.23 1.505-.46 1.898-.999.474-.67.965-2.436.965-3.515 0-.735-.311-1.307-.9-1.634-.458-.246-1.144-.36-2.272-.36h-5.43z"/></g><g><path fill="#2a5072" d="M281.278 63.378h4.856l-.376 1.783H280.9l-.556 2.583h5.233l-.442 2.077h-7.75l2.322-10.906h7.669l-.442 2.076h-5.15z"/></g><g><path fill="#2a5072" d="M291.04 69.82h-2.518l1.848-8.731h-2.943l.458-2.174h8.568l-.474 2.174h-3.074z"/></g><g><path fill="#2a5072" d="M298.645 63.378h4.857l-.376 1.783h-4.857l-.556 2.583h5.233l-.441 2.077h-7.751l2.321-10.906h7.67l-.441 2.076h-5.152z"/></g></g></g></g></svg>