<svg xmlns="http://www.w3.org/2000/svg" width="62" height="54" viewBox="0 0 62 54"><g><g><g><g><g><path fill="#fc6e51" d="M37 31v4H2c-.55 0-1-.45-1-1v-2c0-.55.45-1 1-1h25z"/></g></g><g><g><path fill="#ff826e" d="M37 35v12H23c0-3.31-2.69-6-6-6s-6 2.69-6 6H5c-1.1 0-2-.9-2-2v-2h5l1-4H3v-4z"/></g></g><g><g><path fill="#ff826e" d="M61 42v3c0 1.1-.9 2-2 2h-4c0-1.77-.77-3.37-2-4.47V29l-.97-5.18a.996.996 0 0 0-.98-.82H42c-.55 0-1 .45-1 1v23h-4V23c0-.73.2-1.41.54-2 .69-1.2 1.98-2 3.46-2h10.61c1.96 0 3.63 1.41 3.95 3.34L57 31l1.79.89A4.02 4.02 0 0 1 61 35.47V37h-4v3z"/></g></g><g><g><path fill="#fc6e51" d="M53 33v9.53A5.97 5.97 0 0 0 49 41c-3.31 0-6 2.69-6 6h-2V33h10z"/></g></g><g><g><path fill="#fcd770" d="M61 37v5l-4-2v-3z"/></g></g><g><g><path fill="#fcd770" d="M9 39l-1 4H3v-4z"/></g></g><g><g><path fill="#969faa" d="M53 42.53c1.23 1.1 2 2.7 2 4.47 0 3.31-2.69 6-6 6s-6-2.69-6-6 2.69-6 6-6c1.54 0 2.94.58 4 1.53z"/></g></g><g><g><path fill="#969faa" d="M17 41c3.31 0 6 2.69 6 6s-2.69 6-6 6-6-2.69-6-6 2.69-6 6-6z"/></g></g><g><g><path fill="#ccd1d9" d="M47 47a2 2 0 1 1 4 0 2 2 0 0 1-4 0z"/></g></g><g><g><path fill="#ccd1d9" d="M15 47a2 2 0 1 1 4 0 2 2 0 0 1-4 0z"/></g></g><g><g><path fill="#69d6f4" d="M47 30c0 1.66 1.34 3 3 3h-9v-9c0-.55.45-1 1-1h9.05c.48 0 .89.34.98.82L53 29h-5c-.55 0-1 .45-1 1z"/></g></g><g><g><path fill="#aab2bd" d="M53 29v4h-3c-1.66 0-3-1.34-3-3 0-.55.45-1 1-1z"/></g></g><g><g><path fill="#d3a06c" d="M3 21h12v10H3z"/></g></g><g><g><path fill="#d3a06c" d="M15 21h12v10H15z"/></g></g><g><g><path fill="#d3a06c" d="M27 21h12v10H27z"/></g></g><g><g><path fill="#d3a06c" d="M9 11h12v10H9z"/></g></g><g><g><path fill="#d3a06c" d="M21 11h12v10H21z"/></g></g><g><g><path fill="#d3a06c" d="M15 1h12v10H15z"/></g></g><g><g><path fill="#b27946" d="M19 1h4v4h-4z"/></g></g><g><g><path fill="#b27946" d="M17 11v4h-4v-4h2z"/></g></g><g><g><path fill="#b27946" d="M29 11v4h-4v-4h2z"/></g></g><g><g><path fill="#b27946" d="M33 21h4.54a3.99 3.99 0 0 0-.54 2v2h-6v-4z"/></g></g><g><g><path fill="#b27946" d="M23 21v4h-4v-4h2z"/></g></g><g><g><path fill="#b27946" d="M11 21v4H7v-4h2z"/></g></g></g><g><g><path d="M49 48a1 1 0 1 1 0-2 1 1 0 0 1 0 2zm0-4c-1.654 0-3 1.346-3 3s1.346 3 3 3 3-1.346 3-3-1.346-3-3-3z"/></g><g><path d="M17 48a1 1 0 1 1 0-2 1 1 0 0 1 0 2zm0-4c-1.654 0-3 1.346-3 3s1.346 3 3 3 3-1.346 3-3-1.346-3-3-3z"/></g><g><path d="M59 46h-3.08A6.977 6.977 0 0 0 54 42.111V29l-.987-5.366A2.001 2.001 0 0 0 51.047 22H42c-1.103 0-2 .897-2 2v22h-2V23c0-1.654 1.346-3 3-3h10.611a2.99 2.99 0 0 1 2.959 2.507l1.527 9.16 2.244 1.122A2.985 2.985 0 0 1 60 35.472V36h-4v4.618l4 2V45a1 1 0 0 1-1 1zm-10 6c-2.757 0-5-2.243-5-5s2.243-5 5-5 5 2.243 5 5-2.243 5-5 5zm-7-18h10v6.685A6.955 6.955 0 0 0 49 40c-3.519 0-6.432 2.614-6.92 6H42zm6-6c-1.103 0-2 .897-2 2 0 .732.212 1.409.556 2H42v-8h9.046l.749 4zm0 2h4v2h-2c-1.103 0-2-.897-2-2zM17 52c-2.757 0-5-2.243-5-5s2.243-5 5-5 5 2.243 5 5-2.243 5-5 5zM4 45v-1h4.781l1.5-6H4v-2h32v10H23.92c-.488-3.386-3.401-6-6.92-6s-6.432 2.614-6.92 6H5a1 1 0 0 1-1-1zm0-5h3.719l-.5 2H4zm-2-8h34v2H2zm2-10h2v4h6v-4h2v8H4zm4 0h2v2H8zm2-10h2v4h6v-4h2v8H10zm4 0h2v2h-2zm2-10h2v4h6V2h2v8H16zm4 0h2v2h-2zm6 10h2v2h-2zm6 8H22v-8h2v4h6v-4h2zm4 3v1h-4v-2h4.101A4.995 4.995 0 0 0 36 23zm0 7h-8v-8h2v4h6zm-12-4v-4h2v8H16v-8h2v4zm-4-4h2v2h-2zm40 18.382l-2-1V38h2zM59.236 31l-1.334-.667-1.359-8.154A4.984 4.984 0 0 0 51.611 18H41c-1.627 0-3.061.793-3.974 2H34V10h-6V0H14v10H8v10H2v10c-1.103 0-2 .897-2 2v2c0 1.103.897 2 2 2v9c0 1.654 1.346 3 3 3h5.08c.488 3.386 3.401 6 6.92 6s6.432-2.614 6.92-6h18.16c.488 3.386 3.401 6 6.92 6s6.432-2.614 6.92-6H59c1.654 0 3-1.346 3-3v-9.528A4.974 4.974 0 0 0 59.236 31z"/></g></g></g></g></svg>