<svg xmlns="http://www.w3.org/2000/svg" width="259" height="292" viewBox="0 0 259 292"><g><g><g><path fill="#e6f1ff" d="M3.348 195.33S-20.084 80.27 67.035 48.102C154.153 15.934 221.96-3.03 225.263 89.091c3.302 92.12 57.124 128.64 19.78 159.12C207.7 278.69 14.374 274.125 3.348 195.33z"/></g><g><path fill="#bad4f5" d="M111.941 0v218.55l13.492 7.227V26.11l82.404 45.263v198.546l14.274 7.646V59.015z"/></g><g><g opacity=".4"><path fill="#a8c4e5" d="M134.916 243.167c-.138-6.417 10.22-11.845 23.137-12.124 12.917-.278 23.5 4.698 23.639 11.115.138 6.416-10.22 11.844-23.137 12.123-12.917.279-23.5-4.697-23.639-11.114z"/></g><g><path fill="#0f1a5c" d="M151.497 72.07s8.85-9.926 20.5 2.792c11.648 12.72 17.436-.223 26.02 11.32 8.582 11.543 3.63 14.257 10.497 21.648 6.867 7.39-10.498 23.215-18.482 15.351-7.984-7.863-29.334-5.834-31.134-12.986-1.8-7.152-7.4-38.126-7.4-38.126z"/></g><g><path fill="#0f1a5c" d="M150.405 76.68l-.245 15.879s9.921 6.267 14.81 2.664c4.888-3.604-1.269-20.53-7.38-19.583-6.112.947-7.185 1.04-7.185 1.04z"/></g><g><path fill="#0f1a5c" d="M137.991 236.584l9.03-7.682c1.177-.565 3.733-.65 5.438-.291.766.16 1.303.853 1.302 1.635l-.002 1.688c.08 2.434-.163 2.768-1.716 3.514l-9.22 4.433c-1.553.746-3.832.67-5.064-.171l-.35-.239c-1.232-.841-.97-2.14.582-2.887z"/></g><g><path fill="#ffa3b4" d="M140.187 159.603l7.514 69.062c.318 4.317 5.048 2.92 5.468.297l2.117-62.111z"/></g><g><path fill="#0f1a5c" d="M167.72 249.075l-2.772-10.592c.001-1.305 1.035-3.643 2.098-5.025.477-.62 1.334-.803 2.038-.462l1.52.734c2.227.984 2.687 2.995 2.686 4.717l-.273 8.583c-.002 1.722.222 3.23-1.071 3.976l-.495.217c-1.292.745-3.732-.425-3.73-2.148z"/></g><g><path fill="#ffa3b4" d="M158.644 166.87l7.514 69.062c.318 4.317 5.049 2.92 5.467.297l2.119-62.111z"/></g><g><path fill="#ffd040" d="M174.945 122.27l2.338 6.204 1.795-3.56s5.149-15.011-9.466-23.77c-5.219-3.127-10.584-6.696-14.055-8.202-5.478-2.375-9.969-1.857-14.11 2.444-.421.438-.991 14.209-.991 14.209l-.283 18.702a6.308 6.308 0 0 0-.08 1.247c-.254 4.275-.998 19.536-.51 45.015 0 0 4.02 3.003 11.923 6.408 13.924 6 16.6 5.814 22.624 3.786 0 0 3.026-24.143 3.347-28.875.325-4.82.334-9.873-.483-12.76-1.658-5.86-1.063-6.964-4.133-10.497-.274.067-.533.123-.805.188.65-1.619 1.423-3.259 2.006-6.159z"/></g><g><path fill="#234577" d="M141.435 130.564s11.922 7.51 24.759 3.12v3.755s-13.03 3.148-26.284-4.335z"/></g><g><path fill="#3e69de" d="M163.765 97.558s2.238 15.69-6.115 49.945c-7.544 30.93 4.482 33.359 4.482 33.359s8.853 5.092 14.833-1.936c0 0 3.016-48.287 1.498-58.004-1.518-9.716-14.698-23.364-14.698-23.364z"/></g><g><path fill="#3e69de" d="M153.796 92.277s-11.455 8.439-11.905 41.747c-.263 19.448-.186 30.54-.078 36.403.031 1.66-2.114 2.343-3.048.97l-.24-.351a8.216 8.216 0 0 1-1.42-4.836l1.579-61.165s.812-19.312 15.112-12.768z"/></g><g><path fill="#3e69de" d="M163.765 97.558s17.928 4.288 19.18 19.27l-4.73 13.7-8.579-14.158z"/></g><g><path fill="#f08b9e" d="M161.17 91.372s-3.016 1.855-6.69 1.137l.132 2.3s3.89.512 6.559-3.437z"/></g><g><path fill="#ffa3b4" d="M163.083 87.667c-.12 4.657-6.267 6.405-10.264 3.957-3.997-2.448-4.332-8.164-4.212-12.82.12-4.657 6.469-6.158 10.466-3.71 3.997 2.447 4.13 7.917 4.01 12.573z"/></g><g><path fill="#ffa3b4" d="M158.33 99.64a3.443 3.443 0 0 1-3.625-3.228l-.56-9.682a3.442 3.442 0 0 1 3.229-3.626 3.443 3.443 0 0 1 3.625 3.229l.56 9.682a3.443 3.443 0 0 1-3.228 3.626z"/></g><g><path fill="#0f1a5c" d="M164.514 85.069s-5.85-1.133-8.604-4.37c-2.753-3.236-3.995-5.838-2.442-6.805 1.553-.967 12.6-2.624 11.046 11.175z"/></g><g><path fill="#0f1a5c" d="M154.187 75.634s-4.312.446-5.597 4.555c-1.966-3.247 1.11-12.916 9.06-6.868z"/></g><g><path fill="#ffa3b4" d="M165.083 86.853c-.47 1.321-1.73 2.08-2.812 1.695-1.084-.386-1.582-1.77-1.112-3.09.47-1.322 1.73-2.08 2.813-1.695 1.084.386 1.581 1.77 1.111 3.09z"/></g><g><path fill="#ffa3b4" d="M146.104 147.497a3 3 0 0 1 3.438 2.486l.101.632a3 3 0 0 1-2.486 3.438l-4.171.67a3 3 0 0 1-3.438-2.486l-.102-.632a3 3 0 0 1 2.486-3.438z"/></g><g><path fill="#3e69de" d="M139.91 98.595s-7.897 19.834-11.926 23.221c-4.028 3.388-19.29 10.562-19.29 10.562l4.363 5.719s20.31-6.508 23.575-13.94c3.264-7.432 6.995-17.645 6.995-17.645z"/></g><g><g><g><path fill="#d6b48d" d="M108.063 173.5l23.935-13.818v-30.964l-23.935 13.819z"/></g><g><path fill="#bd9a75" d="M108.064 173.501L76.1 155.047v-30.964l31.963 18.454z"/></g><g><path fill="#e8c399" d="M131.998 128.718l-30.553-17.591-25.344 12.956 31.963 18.454z"/></g></g><g><path fill="#bd9a75" d="M126.11 139.61v-7.493l-6.08-3.92-4.557 2.408 6.382 4.107v7.404z"/></g></g><g opacity=".4"><path fill="#a8c4e5" d="M82.082 287.864c-8.37 4.89-22.91 5.606-32.475 1.602-9.564-4.005-10.53-11.215-2.16-16.104 8.371-4.89 22.91-5.606 32.475-1.601 9.564 4.004 10.532 11.214 2.16 16.103z"/></g><g><path fill="#234577" d="M44.66 268.812L51.1 268c4.311-1.958 6.326-3.427 8.246-2.317l.545.314c1.92 1.109 1.679 3.065-.539 4.348l-9.468 7.537c-2.216 1.282-5.204.878-6.974-.677 0 0-1.06-.956-.305-4.986.431-2.298.28-2.382 2.053-3.407z"/></g><g><path fill="#234577" d="M72.81 281.685l6.312 2.216c4.88.246 7.418-.125 8.673 1.718l.356.522c1.254 1.842.122 3.443-2.515 3.558l-13.73 2.296c-2.638.114-3.696-1.601-4.605-3.764 0 0-.51-2.653.937-5.464 1.068-2.072 2.462-.99 4.572-1.082z"/></g><g><path fill="#fff" d="M75.574 283.902c0 3.016-7.336 3.016-7.336 0v-9.801h7.336z"/></g><g><path fill="#fff" d="M50.603 269.409c-.167 2.73-7.502 2.73-7.335 0l.543-8.876h7.335z"/></g><g><path fill="#29313e" d="M46.123 176.604l8.769 1.299c-.095-.404-.183-.806-.28-1.21h26.476c.131 33.818-1.158 67.51-4.59 101.016-.924 3.82-8.552 3.542-10.037 1.072.347-23.6-1.625-47.85-5.816-72.516l-8.603 59.2c-2.93 3.016-8.695 1.729-9.805-.449z"/></g><g><path fill="#ffa3b4" d="M56.446 104.463c-.976-7.546 1.7-14.112 5.978-14.665 4.277-.553 8.535 5.116 9.511 12.662.976 7.546-1.7 14.111-5.978 14.665-4.277.553-8.535-5.116-9.511-12.662z"/></g><g><path fill="#ffa3b4" d="M78.548 109.338c-1.708 5.952-8.088 8.105-11.839 4.22-3.75-3.885-5.406-11.859-3.699-17.81 1.707-5.951 6.132-7.627 9.883-3.742 3.75 3.885 7.362 11.381 5.655 17.332z"/></g><g><path fill="#ffa3b4" d="M62.732 127.222l-.68-.151a4.286 4.286 0 0 1-3.24-5.1l2.885-12.934a4.285 4.285 0 0 1 5.101-3.24l.68.15a4.285 4.285 0 0 1 3.239 5.102l-.945 12.835c-.511 2.293-4.747 3.85-7.04 3.338z"/></g><g><path fill="#0f1a5c" d="M56.874 110.233s.644 5.607 8.61 4.485c5.715-.805 4.05-10.103 9.764-11.034 6.284-1.026-4.452-16.307-9.465-14.096-5.014 2.211-12.743 2.08-8.91 20.645z"/></g><g><path fill="#ffa3b4" d="M75.27 106.912a2.725 2.725 0 1 1-5.24-1.504 2.727 2.727 0 0 1 5.24 1.504z"/></g><g><path fill="#f58634" d="M45.349 175.455c-.224-12.272-.403-20.297-.215-32.918-.1-21.71 5.92-26.141 13.196-25.382 0 0 4.532 1.589 6.024 2.358 15.815 8.148 20.037 10.66 19.342 20.113.072 15.568-2.222 33.027-2.55 40.687-3.259 10.764-32.18 2.845-35.797-4.858z"/></g><g><path fill="#f08b9e" d="M70.254 115.515l-.646-1.493s2.013 1.234 4.202.953c0 0-1.725.892-3.556.54z"/></g><g><path fill="#0f1a5c" d="M77.428 102.312l6.936-3.08c1.383-.614 1.548-2.513.29-3.357l-7.386-4.648-12.478 8.188z"/></g><g><path fill="#0f1a5c" d="M72.947 107.172a.865.865 0 0 0 .863-.863v-4.23a.865.865 0 0 0-.863-.864.865.865 0 0 0-.862.863v4.23c0 .476.388.864.862.864z"/></g><g><path fill="#0f1a5c" d="M79.379 101.151l-5.569 5.158s-1.254.308-1.48-.149c-.226-.457-.619-4.589-.619-4.589z"/></g><g><path fill="#fff" d="M62.305 106.327l-5.823-1.893-.194-1.12 6.74 2z"/></g><g><path fill="#234577" d="M61.521 88.181c7.026-2.436 19.06-2.753 17.461 12.293 0 0-6.41 7.731-16.677 5.853.01-.013.022-.023.032-.036 0 0 .182-3.321-3.026-3.947-3.158-.617-2.84 2.007-2.829 2.09-.175-.081-.348-.154-.525-.24 0 0-4.192-12.629 5.564-16.013z"/></g><g><path fill="#0f1a5c" d="M64.99 89.316c0 .329.785.596 1.753.596.968 0 1.753-.267 1.753-.596 0-.33-.785-.597-1.753-.597-.968 0-1.753.267-1.753.597z"/></g><g><path fill="#f58634" d="M78.982 100.474s-1.254 1.51-3.538 3.034c1.082-14.192-4.784-15.611-10.459-16.24 6.888-1.267 15.355.433 13.997 13.206z"/></g><g><path fill="#ffa3b4" d="M81.79 130.883l18.246 35.11-13.445.876-17.84-24.594z"/></g><g><path fill="#f58634" d="M80.216 129.08s4.177 1.803 13.693 23.372l-17.281 10.731-13.802-22.88z"/></g><g><path fill="#ffa3b4" d="M119.414 154.77l-22.522 5.342-10.415 5.605s-.352 10.148 15.13 3.781c15.48-6.366 19.192-9.915 19.192-9.915z"/></g><g><path fill="#ffa3b4" d="M122.465 152.62a3 3 0 0 1 3.691 2.093l.39 1.41a3 3 0 0 1-2.093 3.69l-5.295 1.464a3 3 0 0 1-3.69-2.092l-.39-1.411a3 3 0 0 1 2.092-3.69z"/></g><g><path fill="#f08b9e" d="M154.48 92.51s3.362.218 6.69-1.138c0 0-3.303 3.954-6.54 3.737z"/></g><g><path fill="#234577" d="M58.33 117.155s-1.074 1.19 3.148 3.38c1.806.936 11.173 3.373 11.173 3.373 0-4.006-13.94-10.518-14.32-6.753z"/></g><g><path fill="#234577" d="M81.146 180.313l1.482-18.072-6.527-9.01-1.23 31.907s5.177-.451 6.275-4.825z"/></g><g><path fill="#2139c4" d="M156.676 151.859l11.67-4.824s8.143-3.423 10.544-9.168l-.32 8.265s-7.399 8.525-22.286 7.914z"/></g><g><path fill="#3e69de" d="M182.946 116.828s1.473 24.04-12.377 31.178c-13.85 7.14-23.645 6.071-23.645 6.071l-.723-7.04s12.711-4.921 14.97-9.17c3.69-6.935 8.732-23.824 8.732-23.824z"/></g><g><path fill="#2139c4" d="M163.317 136.287l7.419-13.563-.813 4.838a11.472 11.472 0 0 1-5.056 7.716z"/></g></g><g><g><path fill="#234577" d="M103.942 87.27c0 .356 1.815 6.048 3.118 10.09.479 1.485 1.968 2.146 2.359 1.049l2.558-7.158z"/></g><g><path fill="#234577" d="M112.964 91.103l-3.453-1.712c-8.585-4.254-15.61-16.212-15.61-26.574 0-10.362 7.025-15.359 15.61-11.106l3.453 1.711c8.586 4.255 15.612 16.213 15.612 26.575 0 10.362-7.026 15.359-15.612 11.106z"/></g><g><path fill="#f58634" d="M109.566 92.274l-3.453-1.711c-8.587-4.255-15.61-16.213-15.61-26.575 0-10.362 7.023-15.359 15.61-11.105l3.453 1.71c8.586 4.255 15.61 16.212 15.61 26.575 0 10.362-7.024 15.36-15.61 11.106z"/></g><g><path fill="none" stroke="#fff" stroke-linecap="round" stroke-linejoin="round" stroke-miterlimit="20" stroke-width="1.27" d="M102.491 66.836v0l4.606 11.873v0l6.09-10.966v0"/></g></g></g></g></svg>